# Blender 4.3.2
# www.blender.org
mtllib face_mesh.mtl
o FaceMesh
v -0.047579 -0.071541 0.408125
v -0.050270 -0.135376 0.239567
v -0.045300 -0.070844 0.285754
v -0.068697 -0.100033 0.097132
v -0.051142 -0.144587 0.194138
v -0.049122 -0.135133 0.136602
v -0.040234 -0.067985 0.005017
v -0.195212 0.052928 -0.023081
v -0.037859 -0.050563 -0.113838
v -0.037892 -0.055886 -0.170205
v -0.035777 -0.028841 -0.344289
v -0.047805 -0.067709 0.428670
v -0.047021 -0.058981 0.449875
v -0.046436 -0.047223 0.464821
v -0.046237 -0.038391 0.490200
v -0.047648 -0.041481 0.514165
v -0.047974 -0.045435 0.544405
v -0.048195 -0.039824 0.571843
v -0.044578 -0.014236 0.592244
v -0.048488 -0.122297 0.263851
v -0.072626 -0.085182 0.262512
v -0.268698 0.180264 -0.168037
v -0.129334 0.019345 0.007270
v -0.153309 0.024045 0.011955
v -0.176380 0.033513 0.013079
v -0.204244 0.058071 -0.006206
v -0.109204 0.018462 -0.001278
v -0.172521 0.013102 -0.100128
v -0.143536 0.009335 -0.097609
v -0.197407 0.023795 -0.091160
v -0.212286 0.036081 -0.074541
v -0.222376 0.072438 0.022428
v -0.130335 0.030272 0.611399
v -0.204256 0.061851 -0.030876
v -0.271516 0.193448 -0.000170
v -0.246271 0.100801 -0.006075
v -0.160064 -0.002888 0.188963
v -0.078420 -0.064645 0.394922
v -0.072993 -0.052287 0.447334
v -0.105265 -0.045644 0.409628
v -0.119801 -0.023315 0.426401
v -0.092793 -0.039025 0.447657
v -0.106071 -0.018999 0.451246
v -0.147583 0.024750 0.485573
v -0.072924 -0.131383 0.238519
v -0.077087 -0.138838 0.194385
v -0.244874 0.047154 -0.107700
v -0.109267 -0.013891 0.088070
v -0.128433 -0.062320 0.222619
v -0.129297 -0.054706 0.197257
v -0.219420 0.039625 0.179560
v -0.073588 -0.123910 0.140272
v -0.199913 -0.005095 -0.155655
v -0.228528 0.019023 -0.137764
v -0.254308 0.126819 -0.235739
v -0.092478 -0.036265 -0.128387
v -0.118009 0.014172 -0.082475
v -0.162853 0.031537 0.439931
v -0.231951 0.264723 0.361401
v -0.109476 -0.054888 0.249439
v -0.088569 -0.060469 0.265040
v -0.133395 0.025288 0.460181
v -0.126557 0.016427 0.460157
v -0.239095 0.032499 -0.162442
v -0.127469 -0.048761 0.241271
v -0.155866 -0.024526 -0.157888
v -0.161474 -0.029255 -0.189505
v -0.172763 0.017540 -0.324099
v -0.247640 0.073764 -0.198605
v -0.166376 -0.007243 -0.253670
v -0.255045 0.069695 -0.125390
v -0.262438 0.122906 -0.142868
v -0.076978 -0.061329 0.422789
v -0.098856 -0.043443 0.430166
v -0.113083 -0.023347 0.438478
v -0.102505 -0.051019 0.258212
v -0.129797 0.020164 0.460173
v -0.124013 0.004875 0.476086
v -0.123057 0.015322 0.460096
v -0.098743 -0.090002 0.236732
v -0.100098 -0.015374 0.459261
v -0.087061 -0.029367 0.458846
v -0.068840 -0.041389 0.461384
v -0.080039 -0.009623 0.584508
v -0.081496 -0.035067 0.562582
v -0.079715 -0.039225 0.535826
v -0.075370 -0.034675 0.507021
v -0.069783 -0.032165 0.484669
v -0.101376 -0.008196 0.472207
v -0.108995 -0.011521 0.481792
v -0.116411 -0.013666 0.494628
v -0.121795 -0.007867 0.507476
v -0.144505 -0.014212 0.363013
v -0.257501 0.299479 0.157653
v -0.046783 -0.088750 0.275252
v -0.110671 0.005878 0.466460
v -0.117565 0.003968 0.472007
v -0.080529 -0.061260 0.282225
v -0.117321 -0.032329 0.268347
v -0.084548 -0.061619 0.274272
v -0.132940 -0.001315 0.109456
v -0.170121 0.011339 0.133950
v -0.131323 -0.040208 0.217000
v -0.224932 0.068938 -0.288804
v -0.218204 0.031376 -0.235732
v -0.208146 0.000155 -0.185965
v -0.132221 0.012432 0.518738
v -0.102534 -0.045929 -0.181547
v -0.107152 -0.029535 -0.254210
v -0.111824 -0.014047 -0.340395
v -0.193877 0.046501 0.007012
v -0.244086 0.089978 0.050193
v -0.096627 0.020614 -0.011895
v -0.231404 0.061287 -0.056548
v -0.093557 -0.025054 0.063776
v -0.115639 -0.088445 0.207426
v -0.263335 0.121852 0.075438
v -0.232400 0.065846 0.078709
v -0.206213 0.038508 0.093930
v -0.162765 0.020941 0.088327
v -0.129806 0.010984 0.071353
v -0.105875 0.000476 0.053817
v -0.063617 -0.054622 0.013981
v -0.260424 0.116368 0.155589
v -0.247048 0.075527 -0.061323
v -0.062442 -0.119276 0.262293
v -0.112072 -0.024348 0.126726
v -0.267251 0.277739 -0.007041
v -0.088056 -0.005296 0.032631
v -0.130535 -0.014855 0.218746
v -0.215123 0.067931 -0.028819
v -0.114779 -0.079155 0.177436
v -0.248733 0.288935 0.254132
v -0.096006 0.027476 -0.026435
v -0.095064 -0.106059 0.153887
v -0.203844 0.129638 0.483296
v -0.194962 0.174578 0.522016
v -0.269604 0.209202 0.158230
v -0.224023 0.162311 0.418456
v -0.267827 0.165280 -0.076701
v -0.133803 0.047293 0.650735
v -0.057805 -0.086015 0.273684
v -0.132245 -0.012185 0.158663
v -0.260180 0.129006 0.000506
v -0.173248 0.035664 -0.013988
v -0.153700 0.027269 -0.013117
v -0.128503 0.010099 0.483384
v -0.251444 0.125674 0.237330
v -0.091988 0.048877 0.717925
v -0.151211 0.104907 0.636044
v -0.171742 0.135795 0.587344
v -0.037451 -0.043947 -0.252666
v -0.039223 0.034936 0.732685
v -0.133535 0.023272 -0.016812
v -0.114450 0.024368 -0.022012
v -0.101572 0.027935 -0.023845
v -0.258382 0.103770 -0.068892
v -0.117462 0.020544 -0.049108
v -0.139617 0.018096 -0.057158
v -0.161585 0.021879 -0.058499
v -0.181722 0.030574 -0.052933
v -0.193454 0.040315 -0.044334
v -0.272627 0.234970 -0.094973
v -0.185832 0.045010 -0.018023
v -0.045456 -0.065295 0.327274
v -0.126124 -0.031563 0.338147
v -0.110079 -0.064496 0.241605
v -0.082107 -0.059149 0.327248
v -0.037395 -0.049418 -0.053054
v -0.182523 0.103821 0.547157
v -0.159003 0.077178 0.596718
v -0.095967 0.018179 0.691221
v -0.212821 0.222167 0.451720
v -0.102785 0.024586 -0.035827
v -0.083024 -0.060543 0.078515
v -0.042701 0.006974 0.706873
v -0.127063 0.073144 0.682168
v -0.259653 0.206512 0.248150
v -0.088228 -0.021065 0.478458
v -0.095641 -0.024217 0.493996
v -0.102328 -0.026630 0.515315
v -0.107058 -0.021811 0.539802
v -0.111493 -0.000665 0.556441
v -0.116258 -0.000361 0.454725
v -0.122699 0.000863 0.449814
v -0.128264 0.001545 0.443464
v -0.156172 0.008837 0.397726
v -0.228328 0.070410 0.266735
v -0.078442 -0.037872 0.036597
v -0.082648 0.005321 -0.054431
v -0.095145 0.017908 -0.050750
v -0.110641 0.001895 0.460238
v -0.224496 0.111727 0.367192
v -0.066354 -0.027967 -0.052038
v -0.120300 0.016312 0.578763
v -0.046264 -0.112103 0.092896
v -0.066733 -0.080356 0.059043
v -0.043957 -0.089125 0.052642
v -0.102643 -0.057820 0.139261
v -0.044443 -0.007383 0.667477
v -0.044268 -0.009172 0.624826
v -0.085194 0.000221 0.612401
v -0.167238 0.043298 0.488305
v -0.148229 -0.005979 0.252725
v -0.146614 0.031341 0.537948
v -0.190933 0.013181 0.240930
v -0.165085 0.002656 0.296213
v -0.204226 0.038209 0.307602
v -0.093350 0.004797 0.653425
v -0.116575 -0.038721 0.162315
v -0.182985 0.071482 0.509141
v -0.156819 0.054462 0.562657
v -0.184031 0.046762 0.432634
v -0.242087 0.135257 0.308541
v -0.205272 0.075548 0.424813
v -0.244856 0.196705 0.334100
v -0.177123 0.019195 0.354309
v -0.097192 -0.041150 0.102567
v -0.107180 -0.094610 0.228961
v -0.121136 -0.066502 0.237639
v -0.098209 -0.114548 0.198405
v -0.105207 0.000124 -0.095345
v -0.148769 -0.000466 -0.118743
v -0.184472 0.005623 -0.120234
v -0.211865 0.019657 -0.109216
v -0.227387 0.038323 -0.088853
v -0.228659 0.079637 -0.017543
v -0.273466 0.203060 0.078508
v -0.211006 0.058229 0.038579
v -0.189357 0.039545 0.050336
v -0.158495 0.025269 0.048009
v -0.128654 0.017226 0.037660
v -0.105618 0.012392 0.024401
v -0.090476 0.009017 0.012830
v -0.260552 0.297005 0.075917
v -0.118768 -0.054154 0.249406
v -0.086731 -0.079781 0.112315
v -0.091198 -0.116673 0.232078
v -0.075153 -0.108278 0.254826
v -0.089400 -0.104232 0.239939
v -0.110911 -0.046886 0.263864
v -0.071134 -0.115200 0.259888
v -0.066783 -0.085413 0.269319
v -0.088718 0.021548 -0.023738
v -0.078563 0.004454 -0.010035
v -0.074682 -0.014254 0.000531
v -0.199876 0.049765 -0.037032
v -0.219223 0.052339 -0.054771
v -0.022284 -0.106616 0.099427
v 0.154867 0.007683 -0.021252
v -0.017929 -0.090024 0.264799
v 0.267159 0.111711 -0.167509
v 0.082258 -0.008939 0.009127
v 0.105950 -0.010450 0.014544
v 0.131860 -0.006679 0.016473
v 0.167039 0.009696 -0.003681
v 0.060806 -0.003340 0.000275
v 0.123545 -0.023252 -0.101759
v 0.092508 -0.018634 -0.098244
v 0.151566 -0.018297 -0.093509
v 0.170194 -0.009624 -0.076398
v 0.189214 0.019674 0.028063
v 0.062344 0.009359 0.625997
v 0.166100 0.014178 -0.030859
v 0.274787 0.121179 0.008718
v 0.222232 0.040909 -0.000952
v 0.098272 -0.030647 0.196604
v -0.012468 -0.071812 0.397820
v -0.017919 -0.058141 0.449980
v 0.020495 -0.060219 0.416945
v 0.040891 -0.043258 0.436674
v 0.007768 -0.051122 0.454838
v 0.026741 -0.035183 0.459772
v 0.083354 -0.001906 0.502600
v -0.026587 -0.135511 0.239940
v -0.023438 -0.144075 0.195710
v 0.204503 -0.008226 -0.112207
v 0.047175 -0.031491 0.093953
v 0.050617 -0.079978 0.226538
v 0.054538 -0.072843 0.201774
v 0.174337 -0.009530 0.194622
v -0.023375 -0.130208 0.140308
v 0.141415 -0.043032 -0.161419
v 0.179235 -0.028568 -0.143262
v 0.237676 0.065252 -0.237978
v 0.022312 -0.049668 -0.129218
v 0.067096 -0.007917 -0.082688
v 0.101921 -0.000710 0.456736
v 0.254982 0.196764 0.382241
v 0.029097 -0.067467 0.251977
v 0.005073 -0.066859 0.266974
v 0.062690 -0.002390 0.475081
v 0.054633 -0.007965 0.474268
v 0.192897 -0.018460 -0.168803
v 0.053903 -0.065745 0.246503
v 0.090740 -0.050594 -0.161303
v 0.094898 -0.056654 -0.192820
v 0.120673 -0.017041 -0.327329
v 0.213880 0.017431 -0.201557
v 0.104695 -0.037886 -0.256719
v 0.220641 0.011638 -0.129610
v 0.244007 0.058302 -0.144157
v -0.015015 -0.068010 0.425670
v 0.014042 -0.056816 0.436700
v 0.034356 -0.041282 0.448632
v 0.023058 -0.061217 0.261188
v 0.059397 -0.005334 0.474885
v 0.048645 -0.016858 0.489901
v 0.051540 -0.008267 0.474886
v 0.012229 -0.102634 0.238470
v 0.020881 -0.030571 0.466774
v 0.003206 -0.040406 0.464338
v -0.020158 -0.047144 0.464292
v -0.005176 -0.016294 0.588353
v -0.010986 -0.041796 0.567173
v -0.013636 -0.046289 0.540463
v -0.016067 -0.041882 0.510087
v -0.019801 -0.038641 0.489243
v 0.021230 -0.024393 0.480723
v 0.028154 -0.027945 0.490965
v 0.035283 -0.030993 0.506025
v 0.041955 -0.026597 0.519618
v 0.070639 -0.038024 0.373202
v 0.288514 0.223883 0.181990
v 0.035407 -0.014695 0.477836
v 0.041253 -0.016962 0.484288
v -0.005082 -0.067564 0.284635
v 0.044088 -0.045384 0.274597
v -0.000142 -0.067770 0.277430
v 0.074658 -0.025435 0.117697
v 0.115575 -0.022483 0.147589
v 0.060315 -0.058526 0.221042
v 0.191485 0.019022 -0.292559
v 0.170666 -0.013609 -0.240339
v 0.150764 -0.040042 -0.191743
v 0.060650 -0.009464 0.532001
v 0.029217 -0.060849 -0.183522
v 0.037196 -0.047734 -0.255662
v 0.047239 -0.032872 -0.342525
v 0.153902 0.001337 0.009630
v 0.216720 0.030829 0.061118
v 0.047819 0.001570 -0.009701
v 0.194929 0.007876 -0.056728
v 0.026807 -0.039216 0.067513
v 0.029792 -0.103381 0.210373
v 0.247711 0.055116 0.091229
v 0.197416 0.010700 0.091464
v 0.162317 -0.007815 0.107488
v 0.112397 -0.013408 0.097292
v 0.076600 -0.014529 0.076982
v 0.049645 -0.018002 0.057445
v -0.014266 -0.061445 0.014658
v 0.240800 0.049395 0.177702
v 0.215591 0.016786 -0.060853
v -0.033888 -0.122665 0.262195
v 0.045745 -0.041208 0.135484
v 0.290447 0.202570 0.001693
v 0.028506 -0.019994 0.034882
v 0.063943 -0.032913 0.223677
v 0.180303 0.017564 -0.028357
v 0.033857 -0.094329 0.179833
v 0.278700 0.216447 0.273910
v 0.048652 0.007874 -0.024081
v 0.005137 -0.117319 0.155803
v 0.180063 0.080298 0.509478
v 0.186288 0.122943 0.549895
v 0.276588 0.136040 0.180969
v 0.213747 0.103570 0.442556
v 0.260413 0.096570 -0.073301
v 0.071890 0.023046 0.667054
v -0.035165 -0.087978 0.273654
v 0.069995 -0.033293 0.165792
v 0.245011 0.063745 0.007139
v 0.127007 -0.003851 -0.012892
v 0.106602 -0.007397 -0.012827
v 0.055154 -0.013390 0.496227
v 0.234477 0.061219 0.251289
v 0.020489 0.035608 0.728001
v 0.109384 0.071328 0.659332
v 0.145049 0.093517 0.613974
v 0.086117 -0.005763 -0.015952
v 0.067880 -0.000160 -0.020453
v 0.055466 0.006491 -0.022505
v 0.236042 0.039267 -0.068104
v 0.071322 -0.004262 -0.047663
v 0.094049 -0.011583 -0.056286
v 0.117314 -0.013095 -0.057086
v 0.137929 -0.009522 -0.051700
v 0.151752 -0.002953 -0.043072
v 0.283895 0.162793 -0.091790
v 0.142468 0.002066 -0.015937
v 0.047794 -0.049303 0.345741
v 0.027970 -0.077076 0.245034
v -0.005751 -0.066621 0.330211
v 0.145031 0.063450 0.570677
v 0.111187 0.044856 0.619296
v 0.017574 0.005860 0.701292
v 0.221720 0.160782 0.479414
v 0.056072 0.002678 -0.034392
v 0.003807 -0.071385 0.081949
v 0.071391 0.048211 0.699268
v 0.267413 0.135861 0.264220
v 0.003833 -0.032869 0.483982
v 0.008759 -0.036485 0.502079
v 0.015215 -0.040073 0.524867
v 0.019962 -0.036064 0.547043
v 0.032548 -0.016559 0.565679
v 0.041381 -0.021069 0.467469
v 0.047821 -0.022365 0.461949
v 0.054178 -0.023469 0.456318
v 0.088640 -0.021122 0.413193
v 0.192587 0.017879 0.278259
v 0.005572 -0.048493 0.038493
v 0.025814 -0.006707 -0.053681
v 0.044235 -0.000420 -0.049817
v 0.035246 -0.018041 0.470706
v 0.196865 0.058056 0.385491
v -0.001941 -0.036303 -0.050982
v 0.048628 -0.001430 0.590403
v -0.017986 -0.086234 0.060827
v 0.026176 -0.071406 0.142341
v 0.002659 -0.009024 0.619986
v 0.113213 0.012239 0.506742
v 0.083239 -0.028431 0.257985
v 0.085553 0.006540 0.552785
v 0.135529 -0.023229 0.248430
v 0.101403 -0.025963 0.305446
v 0.154731 -0.003893 0.319042
v 0.012344 -0.006671 0.661205
v 0.046698 -0.054920 0.165424
v 0.135146 0.034845 0.530451
v 0.103982 0.025913 0.581294
v 0.130859 0.009479 0.449419
v 0.225703 0.074289 0.323816
v 0.164251 0.031319 0.445933
v 0.248396 0.129294 0.353390
v 0.117865 -0.014966 0.367520
v 0.024585 -0.055331 0.107782
v 0.019237 -0.108296 0.229799
v 0.040253 -0.081472 0.242474
v 0.004491 -0.125616 0.199449
v 0.047625 -0.017353 -0.094842
v 0.091361 -0.027261 -0.120049
v 0.130179 -0.030545 -0.122706
v 0.162648 -0.024539 -0.112554
v 0.184119 -0.011446 -0.092370
v 0.197498 0.025580 -0.014657
v 0.278783 0.128543 0.095437
v 0.173714 0.008888 0.045937
v 0.146156 -0.002779 0.057228
v 0.110780 -0.008837 0.053586
v 0.078459 -0.009093 0.040933
v 0.054202 -0.006888 0.027048
v 0.035939 -0.006466 0.015149
v 0.290137 0.220961 0.090529
v 0.041318 -0.068706 0.253612
v 0.001858 -0.090701 0.116771
v -0.003038 -0.125711 0.233745
v -0.016820 -0.113320 0.257450
v -0.001341 -0.113338 0.241957
v 0.034657 -0.058692 0.269270
v -0.023719 -0.119599 0.260627
v -0.024945 -0.088934 0.271339
v 0.038373 0.005557 -0.022449
v 0.021899 -0.007878 -0.008387
v 0.012087 -0.024597 0.002615
v 0.160453 0.004307 -0.035997
v 0.182182 0.003738 -0.055765
v -0.153370 0.008629 -0.038701
v -0.127535 0.008381 -0.039355
v -0.153632 0.008398 -0.072733
v -0.178641 0.008389 -0.038201
v -0.152820 0.008375 -0.004179
v 0.111030 0.002303 -0.038203
v 0.138519 0.002355 -0.037848
v 0.111269 0.002354 -0.072955
v 0.085123 0.002319 -0.039449
v 0.110155 0.002320 -0.003522
vn -0.9969 0.0452 -0.0647
vn 0.9962 -0.0559 -0.0675
vn -0.9885 -0.1508 0.0078
vn 0.9954 0.0467 -0.0835
vn -0.2848 -0.9429 0.1727
vn -0.0463 0.9819 -0.1836
vn -0.1845 -0.9795 -0.0805
vn 0.2363 0.9634 -0.1269
vn -0.3020 -0.9355 -0.1836
vn 0.3000 0.9369 0.1796
vn -0.3146 -0.9314 -0.1833
vn 0.5651 0.7630 0.3140
vn 0.5256 0.8411 -0.1273
vn -0.5895 -0.8071 -0.0334
vn -0.5577 -0.7888 0.2586
vn -0.6387 -0.6850 -0.3506
vn 0.6013 0.7387 0.3045
vn -0.6638 -0.6640 -0.3443
vn 0.8493 0.3650 0.3815
vn -0.5134 -0.7241 -0.4606
vn -0.6296 -0.7490 -0.2065
vn 0.6348 0.7058 0.3145
vn 0.3400 0.8963 0.2846
vn 0.7651 0.5674 0.3046
vn -0.3393 -0.5919 0.7311
vn 0.2880 0.8956 -0.3391
vn 0.7965 0.3348 -0.5036
vn 0.3588 0.6086 -0.7077
vn 0.5466 0.8342 0.0734
vn -0.6911 -0.7162 -0.0972
vn -0.5599 -0.8231 -0.0948
vn -0.3905 -0.8862 -0.2495
vn 0.6901 0.6645 -0.2866
vn -0.7460 -0.6354 0.1995
vn -0.6766 -0.6340 0.3746
vn -0.1974 -0.9700 -0.1415
vn -0.0559 -0.9881 -0.1434
vn -0.1963 -0.9669 -0.1631
vn -0.1124 -0.9708 -0.2119
vn 0.9190 0.3684 0.1405
vn -0.8079 -0.5370 0.2430
vn -0.8457 -0.5025 -0.1799
vn -0.8897 -0.4447 -0.1032
vn 0.7500 0.6084 -0.2595
vn -0.6848 -0.7058 0.1816
vn 0.7942 0.5714 -0.2066
vn 0.7342 0.6760 -0.0634
vn -0.7399 -0.5333 0.4101
vn -0.7626 -0.5219 0.3821
vn -0.6710 -0.5159 0.5326
vn -0.6046 -0.4528 0.6553
vn 0.5478 0.5296 -0.6477
vn -0.5941 -0.4493 0.6672
vn 0.5630 0.3851 -0.7313
vn 0.7302 0.6562 -0.1903
vn -0.7267 -0.6592 0.1934
vn -0.4240 -0.8865 -0.1851
vn 0.4215 0.9063 0.0299
vn 0.6219 0.7394 0.2581
vn 0.3865 0.9118 0.1388
vn 0.8130 0.5425 -0.2115
vn -0.6086 -0.7819 0.1349
vn -0.8144 -0.5549 0.1695
vn -0.7949 -0.5788 0.1822
vn -0.2449 -0.5830 0.7747
vn 0.1865 0.9368 -0.2961
vn -0.0441 0.6266 -0.7781
vn -0.2916 -0.6148 0.7328
vn -0.8021 -0.5629 -0.1994
vn 0.7283 0.5122 -0.4552
vn -0.5957 -0.7238 -0.3482
vn -0.8514 -0.4969 -0.1680
vn 0.3759 0.8735 -0.3092
vn 0.2913 0.9142 -0.2817
vn -0.2626 -0.8733 0.4104
vn -0.4142 -0.8295 0.3745
vn -0.1018 0.9775 -0.1850
vn 0.0755 -0.9797 0.1859
vn 0.2475 0.9253 -0.2873
vn -0.7419 -0.6635 0.0972
vn -0.7473 -0.6369 0.1896
vn -0.9608 -0.1913 0.2004
vn 0.9484 0.2208 -0.2274
vn 0.9513 0.2705 -0.1475
vn -0.9601 -0.1945 0.2008
vn -0.6263 -0.7764 -0.0705
vn 0.6085 0.7896 0.0790
vn 0.6010 0.7964 0.0671
vn 0.6108 0.7837 0.1134
vn -0.9799 -0.1594 -0.1196
vn -0.9948 -0.0994 0.0209
vn 0.9696 0.2405 0.0453
vn -0.9822 -0.1736 -0.0717
vn -0.2106 -0.9388 -0.2726
vn 0.7043 0.6713 0.2307
vn -0.2110 -0.9604 0.1821
vn 0.4313 0.8877 0.1610
vn -0.3819 -0.9168 -0.1171
vn -0.5616 -0.8172 -0.1299
vn 0.3788 0.9253 -0.0179
vn -0.3880 -0.9149 -0.1116
vn -0.8436 -0.5157 -0.1497
vn 0.5923 0.7162 0.3692
vn -0.8599 -0.4913 -0.1386
vn 0.8045 0.5811 -0.1230
vn 0.8887 0.4532 -0.0692
vn -0.8267 -0.5608 0.0457
vn -0.2644 -0.9526 0.1506
vn 0.2406 0.9687 -0.0602
vn -0.0189 0.9880 -0.1534
vn 0.7986 0.5481 -0.2486
vn -0.8278 -0.5289 0.1870
vn -0.8928 -0.3789 0.2436
vn 0.7101 0.7039 -0.0201
vn -0.6858 -0.7278 0.0108
vn -0.1779 -0.9741 0.1395
vn 0.5474 0.8317 -0.0928
vn -0.2383 -0.9519 0.1927
vn -0.3956 -0.9179 0.0289
vn -0.3064 -0.9518 0.0107
vn 0.4257 0.9045 -0.0268
vn 0.7301 0.6483 -0.2161
vn -0.7754 -0.3959 0.4919
vn -0.6549 -0.7546 0.0425
vn -0.8978 -0.4341 0.0741
vn 0.8554 0.3946 -0.3356
vn 0.8818 0.4661 -0.0720
vn 0.9644 0.2496 0.0877
vn -0.1787 -0.9579 0.2248
vn 0.0322 -0.9775 0.2086
vn -0.1456 -0.9596 0.2406
vn -0.5220 -0.7146 0.4657
vn 0.6126 0.5236 -0.5921
vn -0.5186 -0.7407 0.4271
vn 0.8130 0.4992 0.2998
vn -0.8144 -0.4636 -0.3490
vn -0.4273 -0.7941 -0.4323
vn -0.8616 -0.3948 -0.3192
vn 0.8862 0.3352 0.3199
vn -0.8837 -0.3984 -0.2458
vn -0.9273 -0.3508 -0.1307
vn -0.5947 -0.8037 0.0197
vn 0.5770 0.7654 0.2851
vn -0.3461 0.9381 -0.0150
vn 0.2983 0.9325 -0.2034
vn 0.6407 0.7410 0.2009
vn -0.5913 -0.7893 -0.1654
vn 0.7145 0.6916 0.1055
vn 0.7615 0.6140 0.2076
vn -0.6485 -0.6234 0.4368
vn -0.6568 -0.6617 0.3616
vn -0.7010 -0.6027 0.3813
vn 0.5352 0.4549 -0.7118
vn 0.6190 0.7457 0.2466
vn 0.8553 0.4811 0.1922
vn -0.6740 -0.7233 -0.1503
vn -0.5092 -0.3744 0.7749
vn 0.6052 0.4004 -0.6880
vn -0.5562 -0.2930 0.7777
vn 0.2457 0.3953 -0.8851
vn 0.2110 -0.9247 -0.3168
vn 0.1430 0.9608 0.2375
vn 0.2231 0.8696 0.4405
vn 0.8900 0.1939 0.4127
vn -0.9493 0.1258 -0.2881
vn 0.9015 0.1861 0.3906
vn 0.9522 0.0684 -0.2978
vn -0.9603 -0.0472 0.2751
vn 0.9534 0.0521 -0.2972
vn 0.8798 0.3917 0.2695
vn -0.8093 -0.5118 -0.2882
vn 0.4138 0.8056 -0.4241
vn -0.1716 -0.9197 0.3531
vn -0.6788 -0.7266 -0.1061
vn -0.3670 -0.9002 0.2342
vn -0.7212 -0.5110 -0.4676
vn 0.7572 0.6297 0.1736
vn -0.8980 -0.3905 0.2029
vn 0.8927 0.3992 -0.2090
vn 0.9257 0.1696 -0.3380
vn -0.8153 -0.5542 0.1679
vn 0.3477 0.9191 0.1853
vn 0.4834 0.8658 0.1294
vn 0.3503 0.9266 0.1366
vn -0.3956 -0.8838 -0.2498
vn -0.2604 -0.8089 0.5272
vn 0.6592 0.7519 0.0107
vn -0.3385 -0.7820 0.5233
vn 0.5831 0.7185 -0.3791
vn 0.8348 0.5475 -0.0585
vn -0.6967 -0.7143 0.0655
vn -0.7544 -0.1315 0.6431
vn -0.6774 -0.1645 0.7170
vn 0.6289 0.5778 -0.5203
vn -0.8203 -0.0603 0.5688
vn 0.9387 0.3170 -0.1357
vn 0.9148 0.4037 -0.0115
vn 0.9885 0.1479 -0.0308
vn -0.9303 -0.3308 0.1588
vn -0.2490 -0.7558 -0.6056
vn -0.0294 -0.0378 -0.9989
vn 0.4171 0.7661 0.4890
vn -0.2702 -0.7561 -0.5961
vn -0.6610 -0.6926 0.2887
vn -0.9849 -0.1733 -0.0032
vn 0.9843 0.1727 -0.0373
vn -0.9900 0.1350 -0.0410
vn 0.9911 0.1216 0.0533
vn -0.8888 -0.4577 -0.0232
vn 0.8807 0.4736 0.0098
vn 0.8574 0.5146 0.0041
vn 0.2358 0.8200 -0.5215
vn -0.6316 -0.5419 0.5544
vn 0.1694 0.2981 -0.9394
vn -0.1739 -0.8616 0.4768
vn -0.9090 -0.2450 -0.3371
vn -0.5720 -0.8125 0.1128
vn 0.7208 0.6915 -0.0475
vn 0.7030 0.7005 -0.1228
vn 0.0123 -0.9866 -0.1630
vn -0.2143 -0.9693 -0.1207
vn 0.1649 0.9838 0.0709
vn -0.5330 -0.8460 -0.0111
vn -0.5538 -0.8325 -0.0172
vn 0.2521 0.9669 -0.0395
vn -0.4844 -0.8557 -0.1822
vn 0.4096 0.8986 0.1575
vn 0.6226 0.7261 -0.2920
vn 0.6731 0.7304 -0.1166
vn 0.7939 0.5406 -0.2784
vn -0.6129 -0.4610 0.6418
vn -0.5203 -0.8453 0.1213
vn -0.6031 -0.7046 0.3739
vn 0.7883 0.6091 0.0865
vn 0.6901 0.6544 -0.3091
vn -0.3162 -0.9081 0.2745
vn -0.7913 -0.5816 0.1887
vn 0.6749 0.7305 -0.1044
vn 0.6974 0.6222 -0.3556
vn -0.5753 -0.6987 0.4252
vn -0.6862 -0.6344 0.3560
vn 0.7132 0.6167 0.3333
vn -0.6474 -0.5633 0.5134
vn -0.9946 -0.0992 0.0293
vn 0.9892 0.1008 -0.1065
vn -0.9904 -0.1257 0.0577
vn -0.5131 -0.7750 0.3688
vn 0.3849 0.5919 -0.7081
vn -0.2656 -0.8899 0.3709
vn 0.5089 0.7761 -0.3724
vn 0.4862 0.8735 0.0250
vn -0.5415 -0.8404 -0.0219
vn 0.6916 0.4727 -0.5461
vn -0.9506 0.1074 0.2911
vn -0.7460 -0.3367 0.5746
vn -0.9698 -0.2332 0.0718
vn -0.9906 0.0398 -0.1309
vn 0.9864 -0.0194 -0.1634
vn 0.9991 -0.0171 -0.0392
vn -0.9971 -0.0575 0.0492
vn 0.6670 0.6341 -0.3913
vn -0.6539 -0.5303 0.5397
vn 0.7403 0.6519 -0.1642
vn -0.7075 -0.6838 0.1783
vn 0.6638 0.5168 -0.5406
vn -0.9217 -0.1426 0.3607
vn -0.8786 -0.3584 0.3156
vn -0.9182 -0.2144 0.3331
vn -0.9417 -0.1571 0.2974
vn 0.5306 0.8134 0.2385
vn 0.5332 0.8460 0.0017
vn -0.2217 -0.9274 -0.3012
vn -0.5547 -0.7843 -0.2779
vn 0.5667 0.6980 0.4378
vn 0.3290 -0.9040 -0.2730
vn 0.9378 0.3182 -0.1392
vn -0.9857 -0.1164 0.1215
vn -0.9381 -0.3050 0.1643
vn 0.4411 0.7186 0.5376
vn -0.6184 -0.6348 -0.4633
vn -0.2766 -0.9349 0.2223
vn 0.4070 0.6880 -0.6008
vn -0.1847 -0.9602 0.2095
vn -0.2911 -0.9373 0.1918
vn 0.3233 0.8852 0.3346
vn -0.5314 -0.8069 -0.2580
vn -0.4807 -0.8222 -0.3049
vn -0.5575 -0.7755 -0.2962
vn -0.7786 -0.5902 -0.2129
vn 0.9904 -0.1330 -0.0377
vn 0.9857 -0.1328 -0.1041
vn 0.9900 -0.1370 -0.0328
vn -0.1902 -0.9649 -0.1811
vn -0.2027 -0.9696 -0.1369
vn 0.3465 0.9171 0.1971
vn -0.1565 -0.9791 -0.1297
vn -0.2165 -0.9627 -0.1622
vn 0.4512 0.8673 0.2102
vn 0.2747 0.9573 -0.0906
vn 0.0388 -0.9948 0.0939
vn -0.2137 -0.9693 -0.1213
vn 0.1913 0.9815 -0.0058
vn 0.2956 0.8051 0.5142
vn -0.4754 -0.6426 -0.6008
vn -0.5338 -0.7422 -0.4053
vn 0.8753 0.3913 0.2840
vn 0.4247 0.8147 0.3948
vn 0.4162 0.5656 0.7120
vn 0.9633 -0.0322 -0.2665
vn -0.9662 0.0393 0.2547
vn 0.9659 -0.0851 -0.2447
vn -0.9770 0.1127 0.1811
vn -0.9026 -0.1934 0.3846
vn -0.8527 -0.4840 0.1964
vn 0.5389 0.4812 -0.6914
vn 0.4860 0.7401 0.4648
vn 0.4872 0.7461 0.4538
vn -0.4278 -0.7878 -0.4431
vn -0.1406 -0.9851 -0.0994
vn 0.0143 -0.9397 0.3418
vn 0.3104 0.9026 -0.2981
vn 0.4904 0.6124 -0.6200
vn 0.2842 0.7151 -0.6387
vn -0.5238 -0.7882 0.3232
vn 0.5633 0.8156 0.1324
vn 0.5922 0.7930 0.1431
vn 0.3866 0.8996 -0.2031
vn -0.3173 -0.7812 0.5377
vn 0.6220 0.7778 0.0907
vn 0.1964 0.9669 0.1630
vn 0.7298 0.5345 -0.4263
vn -0.4808 -0.5228 0.7039
vn 0.9732 0.1423 0.1806
vn -0.9003 -0.4327 -0.0483
vn 0.8510 0.4729 -0.2283
vn -0.8805 -0.4670 -0.0817
vn -0.2788 -0.7948 0.5390
vn -0.3671 -0.2551 0.8945
vn -0.2079 -0.3052 0.9293
vn 0.3148 -0.8320 -0.4569
vn -0.6455 -0.7550 -0.1154
vn 0.6611 0.7392 0.1285
vn 0.5028 0.8544 0.1307
vn 0.6430 0.7611 -0.0859
vn -0.8115 -0.5690 0.1331
vn 0.7272 0.6622 -0.1805
vn 0.9907 0.1356 -0.0062
vn -0.9568 -0.2017 -0.2094
vn -0.9965 -0.0770 -0.0319
vn 0.9548 0.2872 0.0764
vn -0.8812 -0.3481 -0.3198
vn -0.8611 -0.4019 -0.3115
vn 0.8718 0.3847 0.3034
vn 0.2657 0.9634 -0.0359
vn -0.2181 -0.4912 0.8433
vn 0.5271 0.8495 -0.0214
vn -0.1641 -0.9778 0.1301
vn 0.4771 0.7895 -0.3860
vn 0.4388 0.2124 -0.8732
vn -0.2538 -0.7554 0.6041
vn -0.2696 -0.8869 0.3750
vn -0.6536 -0.7561 -0.0334
vn 0.5871 0.8032 0.1004
vn 0.6718 0.7404 -0.0200
vn -0.9045 -0.3214 -0.2804
vn -0.9071 -0.3158 -0.2782
vn 0.7985 0.5838 -0.1465
vn -0.4904 -0.7799 -0.3890
vn 0.2673 0.8670 0.4206
vn -0.5739 -0.6920 -0.4379
vn -0.6651 -0.7026 0.2529
vn -0.7041 0.1048 0.7023
vn 0.7239 0.3400 -0.6004
vn 0.7787 0.2508 -0.5751
vn 0.9359 0.2625 -0.2347
vn -0.1050 -0.9267 0.3609
vn 0.6974 0.6894 -0.1958
vn 0.2688 0.9109 0.3131
vn 0.3263 0.9224 0.2067
vn 0.5082 0.8583 -0.0708
vn 0.7144 0.4328 -0.5498
vn 0.6362 0.5551 -0.5358
vn 0.4461 0.8666 -0.2234
vn 0.6219 0.7219 -0.3037
vn -0.9860 0.1224 0.1128
vn 0.5725 0.5411 -0.6160
vn 0.6698 0.5188 -0.5313
vn 0.5473 0.5577 -0.6241
vn 0.6450 0.7109 -0.2803
vn -0.8706 -0.4710 0.1423
vn -0.9324 -0.3469 0.1020
vn -0.6947 -0.3098 0.6492
vn 0.1790 0.9636 -0.1988
vn -0.0087 -0.9800 0.1989
vn -0.5478 -0.8168 0.1809
vn 0.9740 0.1231 -0.1904
vn -0.9842 -0.1040 0.1433
vn 0.9576 0.2006 -0.2067
vn 0.1641 0.6171 -0.7696
vn 0.5532 0.5053 -0.6623
vn 0.0565 0.6831 -0.7282
vn 0.3832 0.5954 -0.7061
vn 0.2386 0.4765 -0.8461
vn 0.1504 -0.5094 0.8473
vn -0.0719 -0.8903 0.4497
vn 0.0976 0.8669 -0.4888
vn 0.5912 0.8063 0.0213
vn -0.6813 -0.7251 -0.1003
vn -0.6528 -0.7568 -0.0337
vn 0.2793 0.9583 0.0606
vn -0.0724 -0.9951 -0.0678
vn -0.0248 -0.9737 -0.2267
vn 0.4189 0.8577 0.2981
vn 0.6492 0.7180 -0.2512
vn -0.5840 -0.7000 0.4109
vn 0.4488 0.7906 -0.4165
vn 0.2188 0.7600 -0.6120
vn 0.2333 0.8588 -0.4560
vn 0.1534 0.8814 -0.4467
vn 0.1692 0.8866 -0.4304
vn -0.2114 -0.8683 0.4487
vn 0.2750 0.8655 -0.4186
vn 0.4719 0.7990 -0.3727
vn 0.5163 0.7415 -0.4286
vn -0.6194 -0.4472 0.6453
vn 0.5094 0.8497 0.1362
vn 0.9805 0.1203 -0.1551
vn -0.9395 -0.3027 0.1603
vn 0.6441 0.7416 0.1876
vn -0.8485 -0.3826 -0.3657
vn -0.8574 -0.4611 -0.2285
vn 0.9067 0.3033 0.2931
vn -0.8862 -0.3041 -0.3494
vn -0.9005 -0.3652 -0.2359
vn 0.9067 0.3160 0.2793
vn -0.8565 -0.4925 -0.1544
vn 0.8665 0.2645 0.4233
vn -0.9769 0.1164 0.1791
vn 0.9462 -0.3164 0.0683
vn -0.9391 0.3421 0.0327
vn -0.9740 0.1970 0.1116
vn 0.0033 -0.9908 0.1355
vn -0.0262 0.9248 -0.3797
vn 0.2475 -0.9567 0.1532
vn 0.3211 -0.9040 -0.2824
vn 0.3711 -0.8887 -0.2693
vn -0.2897 0.9279 0.2347
vn 0.0044 0.9888 0.1493
vn -0.2652 0.9320 -0.2472
vn 0.2137 -0.9085 0.3591
vn 0.4318 -0.8546 0.2883
vn 0.6870 -0.6412 -0.3419
vn -0.7158 0.6174 0.3264
vn -0.6202 0.7395 0.2617
vn -0.3963 0.8696 0.2945
vn -0.2848 0.8373 0.4667
vn 0.1373 -0.9598 -0.2448
vn -0.6637 0.7097 0.2365
vn 0.5412 -0.7930 -0.2797
vn -0.7598 0.6427 0.0987
vn -0.3791 0.9073 0.1821
vn 0.0649 -0.6812 0.7292
vn -0.0562 0.6701 -0.7402
vn -0.1466 0.9718 0.1846
vn 0.1324 -0.9853 -0.1079
vn -0.1350 0.9736 0.1842
vn 0.2562 -0.9651 -0.0543
vn -0.4197 0.8303 -0.3666
vn 0.3987 -0.8265 0.3974
vn -0.5179 0.7522 -0.4074
vn 0.1098 0.9757 0.1895
vn 0.0333 0.9797 -0.1975
vn 0.1400 -0.9768 -0.1621
vn -0.7532 0.6542 0.0693
vn 0.9499 -0.3064 0.0621
vn 0.8292 -0.4094 -0.3807
vn 0.7724 -0.6295 -0.0838
vn 0.4533 -0.8864 0.0940
vn -0.2728 0.9449 -0.1813
vn -0.5105 0.8443 -0.1628
vn 0.4618 -0.8434 0.2746
vn -0.4010 0.7008 -0.5900
vn 0.3577 -0.6943 0.6245
vn 0.4065 -0.6936 0.5948
vn 0.2011 -0.4958 0.8448
vn -0.1467 0.5684 -0.8096
vn -0.2879 0.6711 -0.6831
vn -0.5380 0.7477 -0.3893
vn 0.4109 -0.8672 0.2812
vn 0.4762 -0.8662 0.1517
vn 0.0917 -0.9900 -0.1069
vn -0.1823 0.9708 0.1559
vn -0.5679 0.7907 -0.2286
vn -0.5601 0.7934 -0.2383
vn 0.7212 -0.6358 0.2749
vn 0.5505 -0.8084 0.2084
vn -0.0613 0.6459 -0.7609
vn 0.5064 -0.6163 0.6031
vn 0.0310 0.9852 -0.1688
vn -0.5923 0.7856 0.1788
vn 0.4915 -0.8244 -0.2807
vn -0.5671 0.8119 0.1384
vn -0.6643 0.7333 0.1448
vn -0.2391 0.9181 -0.3161
vn -0.3883 0.8383 -0.3827
vn 0.1982 -0.9443 0.2628
vn -0.0182 -0.9775 0.2103
vn 0.2168 -0.9083 0.3579
vn 0.1885 0.9248 -0.3304
vn -0.3102 -0.9410 0.1356
vn -0.4733 0.8543 -0.2150
vn 0.5394 -0.7931 0.2830
vn 0.3481 -0.8833 0.3141
vn -0.4019 0.8923 -0.2055
vn -0.8020 0.5596 -0.2091
vn -0.8653 0.4055 -0.2946
vn 0.7917 -0.5698 0.2202
vn -0.8204 0.5331 -0.2068
vn 0.3655 -0.9270 -0.0845
vn 0.1829 -0.9828 0.0256
vn -0.9342 0.0391 -0.3547
vn -0.3711 0.9259 0.0703
vn -0.8774 0.4768 0.0528
vn 0.7260 -0.6072 -0.3229
vn -0.8829 0.4464 0.1456
vn 0.2067 -0.9666 -0.1516
vn 0.2295 -0.8672 -0.4420
vn -0.0317 0.9696 0.2426
vn -0.1700 0.9798 0.1052
vn 0.0378 0.9930 0.1117
vn -0.1517 0.9812 0.1196
vn -0.6701 0.7368 0.0906
vn 0.3458 -0.8288 -0.4400
vn 0.4585 -0.8865 0.0617
vn -0.5567 0.8273 -0.0751
vn 0.4339 -0.8920 0.1263
vn -0.6201 0.7667 -0.1662
vn 0.5199 -0.8388 0.1614
vn -0.0280 -0.9727 0.2305
vn 0.1112 -0.9742 0.1964
vn -0.6571 0.6974 -0.2862
vn 0.3340 -0.7549 0.5645
vn -0.4591 0.8862 -0.0619
vn 0.1719 -0.9465 -0.2730
vn 0.2550 -0.9596 0.1189
vn 0.0014 0.9797 -0.2003
vn 0.0396 0.9907 0.1300
vn 0.1434 -0.9889 0.0384
vn -0.2508 0.9624 -0.1040
vn 0.2771 -0.9589 -0.0619
vn -0.0253 0.9988 -0.0423
vn -0.4782 0.6885 -0.5452
vn 0.7667 -0.5001 0.4025
vn 0.5569 -0.5844 0.5901
vn -0.4209 0.9068 -0.0223
vn 0.4161 -0.9089 0.0271
vn -0.3142 0.9490 0.0250
vn -0.5229 0.8339 -0.1763
vn 0.8293 -0.5504 -0.0968
vn 0.7985 -0.5968 -0.0786
vn -0.6774 0.6383 0.3658
vn -0.7307 0.6811 -0.0455
vn 0.1214 0.9714 -0.2039
vn -0.1062 0.9663 -0.2345
vn -0.0955 -0.9239 0.3705
vn 0.0582 0.9841 -0.1675
vn -0.3201 0.8692 -0.3769
vn -0.7203 0.6229 0.3052
vn 0.7768 -0.5682 -0.2717
vn -0.7188 0.6267 0.3010
vn 0.6633 -0.6897 -0.2903
vn 0.0623 -0.9804 0.1868
vn 0.7042 -0.6307 0.3260
vn 0.5533 -0.8118 -0.1865
vn -0.6982 0.7153 0.0303
vn -0.4202 0.9064 0.0438
vn 0.4137 -0.8925 -0.1798
vn -0.4274 0.7942 -0.4319
vn -0.2335 0.9042 -0.3576
vn 0.2511 -0.7907 0.5584
vn 0.3231 -0.5400 0.7772
vn 0.5060 -0.6047 0.6151
vn -0.2624 0.9638 -0.0469
vn -0.4433 0.8343 -0.3278
vn -0.4254 0.8988 0.1056
vn -0.2707 0.9620 -0.0346
vn -0.2364 0.9623 0.1343
vn 0.3720 -0.9066 -0.1993
vn 0.0274 -0.4446 0.8953
vn -0.0391 -0.5822 0.8121
vn -0.7146 0.6639 -0.2202
vn -0.4942 0.4890 -0.7188
vn -0.0523 -0.9213 -0.3853
vn -0.0911 -0.9101 -0.4042
vn 0.2225 0.9578 0.1818
vn 0.4182 0.8655 0.2755
vn 0.8065 -0.4163 -0.4198
vn -0.7775 0.5558 0.2943
vn 0.7563 -0.4776 -0.4470
vn 0.8119 -0.4796 0.3327
vn 0.7574 -0.5946 0.2699
vn -0.7857 0.5082 -0.3526
vn 0.8337 -0.4391 0.3349
vn -0.7480 0.6293 0.2106
vn 0.6744 -0.7238 -0.1461
vn -0.1199 0.9739 -0.1926
vn 0.0654 -0.9363 0.3449
vn -0.2949 0.9139 -0.2792
vn 0.1835 -0.9187 0.3496
vn 0.5590 -0.8160 -0.1469
vn 0.5219 -0.8297 0.1978
vn -0.6824 0.7199 0.1268
vn 0.4954 -0.8428 -0.2104
vn 0.4088 -0.8901 0.2017
vn -0.6684 0.7085 -0.2264
vn 0.2358 -0.9620 -0.1373
vn 0.0569 0.9830 0.1748
vn 0.1358 -0.9581 -0.2521
vn 0.4139 -0.8726 -0.2591
vn -0.4170 0.8586 0.2980
vn -0.5674 0.7892 -0.2352
vn -0.0648 0.9872 0.1455
vn 0.0094 -0.9999 -0.0037
vn 0.3130 -0.8821 0.3521
vn -0.3486 0.8713 -0.3453
vn -0.3116 0.8717 -0.3781
vn -0.0542 0.8900 -0.4527
vn -0.4356 0.8990 -0.0457
vn -0.5376 0.8134 0.2222
vn 0.2851 -0.9585 -0.0066
vn -0.4106 0.9015 0.1371
vn -0.5819 0.2474 -0.7747
vn -0.6522 0.3866 -0.6521
vn 0.1812 -0.3179 0.9307
vn -0.6513 0.1999 -0.7320
vn -0.7549 0.6389 -0.1482
vn -0.4283 0.8454 -0.3193
vn -0.7534 0.6465 -0.1205
vn 0.8019 -0.5938 0.0659
vn -0.2376 0.8289 0.5065
vn 0.3713 -0.7180 -0.5887
vn 0.0765 0.6890 0.7208
vn 0.7590 -0.6500 -0.0381
vn -0.8431 0.4907 0.2200
vn 0.6146 -0.7887 0.0166
vn 0.9201 -0.3854 -0.0691
vn -0.6706 0.7355 0.0970
vn -0.9182 0.3919 -0.0579
vn -0.8878 0.4602 0.0018
vn 0.6184 -0.7859 -0.0026
vn -0.9225 0.3829 -0.0484
vn 0.0125 0.8800 -0.4749
vn 0.0360 -0.8604 0.5084
vn -0.6785 0.6440 0.3535
vn 0.3162 -0.8253 -0.4678
vn -0.5669 0.6576 0.4961
vn 0.4895 -0.8538 0.1772
vn -0.1671 -0.9644 -0.2050
vn 0.2395 0.9703 0.0333
vn 0.2536 0.9540 0.1598
vn 0.3013 -0.9532 0.0242
vn -0.3506 0.9358 0.0370
vn 0.0172 -0.9990 0.0420
vn -0.0443 0.9551 -0.2928
vn 0.0088 -0.9985 0.0549
vn 0.1514 -0.9823 -0.1102
vn -0.2432 0.9398 0.2401
vn 0.4077 -0.9021 0.1415
vn -0.0378 0.9992 0.0108
vn 0.4090 -0.9026 0.1340
vn -0.3629 0.9187 -0.1560
vn 0.4388 -0.6825 0.5845
vn -0.5398 0.7453 -0.3914
vn 0.6695 -0.6905 0.2737
vn 0.3132 0.9399 -0.1359
vn 0.0218 -0.8063 0.5911
vn 0.2434 0.9550 -0.1694
vn 0.4275 -0.8540 0.2965
vn 0.6504 -0.7269 0.2206
vn 0.1014 -0.9665 0.2359
vn -0.0636 0.9360 -0.3461
vn 0.5510 -0.8114 0.1952
vn -0.6846 0.6629 -0.3032
vn 0.4433 -0.8375 0.3196
vn -0.4584 0.8795 -0.1279
vn 0.3019 -0.8737 -0.3814
vn 0.9902 -0.1349 0.0372
vn -0.1739 0.9050 -0.3882
vn -0.0427 0.9980 -0.0465
vn -0.4903 0.6245 -0.6079
vn 0.4449 -0.7622 0.4702
vn -0.1513 -0.8607 0.4861
vn -0.9648 0.2572 -0.0545
vn -0.8775 0.4716 -0.0873
vn -0.3942 0.6655 -0.6338
vn 0.2765 -0.5689 0.7745
vn -0.5514 0.8136 -0.1844
vn -0.3701 0.7104 -0.5987
vn 0.3717 -0.7084 0.6000
vn 0.6888 -0.6925 0.2146
vn -0.7426 0.5428 -0.3923
vn 0.3951 -0.8652 -0.3088
vn 0.2814 -0.9315 -0.2304
vn -0.3475 0.8956 0.2778
vn 0.6737 -0.7331 0.0932
vn 0.6636 -0.7480 0.0018
vn 0.7587 -0.6298 0.1664
vn -0.4707 0.7945 0.3836
vn -0.3770 0.7661 0.5205
vn -0.0906 0.9757 -0.1996
vn 0.1449 -0.9679 0.2052
vn -0.0219 0.9601 0.2787
vn -0.0859 0.9736 -0.2114
vn -0.2809 0.9326 0.2264
vn 0.1560 -0.8958 -0.4161
vn 0.1104 -0.9765 -0.1850
vn -0.7078 0.6551 0.2644
vn 0.8392 -0.5410 -0.0552
vn 0.9924 -0.1208 0.0215
vn -0.9917 0.1237 0.0352
vn 0.0308 0.9895 0.1411
vn -0.9637 0.0889 0.2517
vn 0.9403 -0.2972 -0.1661
vn -0.9718 0.1166 0.2048
vn 0.0293 0.9911 0.1295
vn 0.0148 0.9884 0.1510
vn -0.4352 0.8537 0.2860
vn 0.0584 0.9892 0.1343
vn -0.3778 0.8828 0.2792
vn 0.1355 -0.9638 -0.2295
vn -0.2201 0.8978 0.3813
vn -0.2335 0.8703 0.4336
vn 0.3646 -0.8323 -0.4175
vn 0.9055 -0.3117 0.2879
vn -0.9150 0.3007 -0.2688
vn 0.8626 -0.4641 0.2013
vn 0.9474 -0.1995 0.2504
vn 0.6187 -0.7730 0.1405
vn -0.5908 0.7430 -0.3145
vn 0.0360 -0.6543 0.7554
vn 0.2821 -0.6756 0.6812
vn 0.3274 -0.6986 0.6362
vn 0.4332 -0.8748 0.2170
vn 0.2172 -0.7573 0.6159
vn 0.2519 -0.9120 0.3237
vn -0.3918 0.8827 -0.2594
vn -0.2996 0.9437 0.1404
vn 0.3439 -0.9390 0.0077
vn 0.3226 -0.9310 -0.1708
vn 0.3785 -0.9010 -0.2120
vn -0.4371 0.8960 0.0779
vn -0.3374 0.9311 0.1386
vn 0.9818 -0.1853 0.0418
vn 0.0444 0.9856 0.1633
vn -0.7637 0.4594 -0.4536
vn -0.1652 -0.6405 0.7500
vn -0.2580 0.6376 -0.7259
vn 0.2088 -0.6577 0.7238
vn -0.7158 0.6965 0.0495
vn 0.0609 0.9550 -0.2903
vn -0.0589 -0.9484 0.3116
vn -0.1300 0.8639 -0.4866
vn -0.1500 0.3250 -0.9338
vn 0.0995 -0.3088 0.9459
vn -0.0856 0.8678 -0.4895
vn 0.0013 -0.9299 0.3678
vn 0.2563 -0.9523 -0.1659
vn -0.3856 0.9081 0.1631
vn 0.4498 -0.8921 -0.0426
vn -0.1303 0.8816 -0.4537
vn -0.0073 0.9816 -0.1906
vn 0.4019 -0.9117 0.0857
vn 0.9173 -0.3949 -0.0523
vn -0.9180 0.3943 0.0426
vn 0.8975 -0.4401 0.0299
vn -0.7363 0.6172 0.2774
vn 0.7346 -0.6207 -0.2741
vn 0.7296 -0.6229 -0.2824
vn 0.5247 -0.6095 0.5943
vn -0.9243 0.3784 -0.0510
vn -0.7816 0.5036 -0.3682
vn 0.4424 -0.8959 0.0414
vn -0.4488 0.8775 -0.1689
vn 0.0428 0.9903 -0.1322
vn 0.0274 0.9965 0.0792
vn 0.0819 -0.9964 0.0218
vn 0.1221 -0.6037 0.7878
vn -0.2325 0.2974 -0.9260
vn -0.0305 -0.9965 -0.0778
vn -0.0253 0.9252 -0.3786
vn -0.0205 0.7862 -0.6177
vn 0.0147 -0.7918 0.6107
vn -0.4520 0.8913 0.0356
vn 0.5583 -0.8253 -0.0844
vn -0.2593 0.9640 0.0584
vn 0.3445 -0.9351 -0.0832
vn 0.7636 -0.5775 -0.2888
vn 0.3981 -0.9146 -0.0711
vn -0.6250 0.7688 -0.1351
vn -0.5025 0.4797 -0.7193
vn -0.1430 0.9095 0.3904
vn 0.6362 -0.4853 0.5998
vn -0.5673 0.5080 -0.6482
vn 0.3208 -0.8399 0.4378
vn -0.2512 0.9330 -0.2576
vn 0.2628 -0.9294 0.2593
vn -0.4399 0.7077 -0.5528
vn 0.1621 -0.9746 -0.1544
vn 0.1942 -0.9634 -0.1846
vn 0.2767 -0.9517 0.1326
vn -0.9827 0.1506 -0.1080
vn 0.9183 -0.3831 0.1004
vn -0.9702 0.1580 -0.1837
vn 0.9863 -0.1350 0.0944
vn 0.6033 -0.7001 0.3819
vn 0.3827 -0.8759 0.2939
vn -0.4688 0.8640 -0.1835
vn 0.8022 -0.5689 0.1812
vn -0.7671 0.6103 -0.1980
vn 0.8864 -0.4608 0.0442
vn -0.8958 0.4203 -0.1445
vn 0.8927 -0.4215 0.1593
vn -0.2957 0.9552 0.0150
vn 0.9673 -0.1575 0.1990
vn 0.1521 0.8614 -0.4847
vn -0.0679 0.5484 -0.8334
vn 0.2715 -0.9582 -0.0904
vn 0.3746 -0.9262 -0.0428
vn 0.1406 -0.9890 0.0453
vn 0.5040 -0.8598 -0.0818
vn 0.1667 -0.9858 0.0201
vn -0.0750 -0.9959 0.0504
vn -0.0130 -0.9908 -0.1345
vn 0.3326 -0.9322 -0.1425
vn 0.6501 -0.7589 0.0366
vn -0.2812 0.8367 0.4700
vn -0.0994 0.9270 -0.3617
vn 0.3192 -0.8693 0.3775
vn 0.6950 -0.1860 0.6946
vn -0.5065 0.3920 -0.7680
vn 0.4278 -0.5618 0.7081
vn -0.4573 0.5217 -0.7202
vn -0.4095 0.6075 -0.6806
vn -0.8683 0.4592 -0.1878
vn -0.7641 0.6124 -0.2028
vn 0.4577 -0.4749 0.7517
vn 0.7025 -0.6410 -0.3091
vn -0.6844 0.7188 0.1219
vn -0.7662 0.5685 0.2997
vn -0.7881 0.4757 0.3906
vn -0.9652 0.1767 -0.1928
vn 0.3983 -0.9009 -0.1727
vn -0.4774 0.8752 0.0785
vn 0.3413 -0.9228 -0.1790
s 0
f 35//1 128//1 140//1
f 35//2 128//2 235//2
f 35//3 140//3 157//3
f 128//4 140//4 163//4
f 1//5 12//5 38//5
f 1//6 12//6 268//6
f 1//7 38//7 165//7
f 12//8 38//8 73//8
f 121//9 232//9 233//9
f 27//10 232//10 233//10
f 121//11 231//11 232//11
f 121//12 122//12 233//12
f 38//13 40//13 73//13
f 38//14 40//14 168//14
f 40//15 73//15 74//15
f 48//16 122//16 129//16
f 122//17 129//17 233//17
f 48//18 101//18 122//18
f 48//19 115//19 129//19
f 129//20 233//20 234//20
f 68//21 70//21 105//21
f 70//22 105//22 106//22
f 68//23 70//23 109//23
f 68//24 104//24 105//24
f 149//25 172//25 176//25
f 172//26 176//26 200//26
f 141//27 149//27 172//27
f 149//28 153//28 176//28
f 51//29 102//29 119//29
f 51//30 118//30 119//30
f 51//31 102//31 206//31
f 102//32 119//32 120//32
f 40//33 41//33 74//33
f 40//34 41//34 93//34
f 41//35 74//35 75//35
f 10//36 109//36 152//36
f 10//37 152//37 338//37
f 109//38 110//38 152//38
f 10//39 108//39 109//39
f 49//40 116//40 132//40
f 49//41 116//41 220//41
f 116//42 132//42 221//42
f 49//43 50//43 132//43
f 195//44 205//44 212//44
f 107//45 195//45 205//45
f 205//46 211//46 212//46
f 33//47 195//47 212//47
f 41//48 75//48 186//48
f 41//49 186//49 187//49
f 75//50 185//50 186//50
f 43//51 81//51 184//51
f 43//52 81//52 82//52
f 43//53 184//53 185//53
f 81//54 184//54 192//54
f 41//55 93//55 187//55
f 93//56 187//56 217//56
f 119//57 230//57 231//57
f 24//58 230//58 231//58
f 118//59 119//59 230//59
f 119//60 120//60 231//60
f 203//61 213//61 215//61
f 58//62 203//62 213//62
f 208//63 213//63 215//63
f 203//64 211//64 215//64
f 18//65 19//65 84//65
f 19//66 84//66 202//66
f 18//67 19//67 314//67
f 18//68 84//68 85//68
f 62//69 77//69 147//69
f 62//70 77//70 185//70
f 44//71 62//71 147//71
f 77//72 78//72 147//72
f 30//73 31//73 161//73
f 28//74 30//74 161//74
f 30//75 31//75 225//75
f 31//76 161//76 162//76
f 57//77 158//77 174//77
f 29//78 57//78 158//78
f 57//79 174//79 191//79
f 44//80 107//80 205//80
f 107//81 183//81 195//81
f 136//82 193//82 215//82
f 136//83 170//83 215//83
f 188//84 193//84 215//84
f 136//85 139//85 193//85
f 99//86 166//86 204//86
f 166//87 204//87 207//87
f 98//88 99//88 166//88
f 99//89 130//89 204//89
f 22//90 69//90 72//90
f 22//91 72//91 163//91
f 64//92 69//92 72//92
f 22//93 55//93 69//93
f 5//94 46//94 52//94
f 46//95 52//95 135//95
f 5//96 45//96 46//96
f 5//97 6//97 52//97
f 24//98 25//98 145//98
f 25//99 111//99 145//99
f 24//100 25//100 230//100
f 24//101 145//101 146//101
f 78//102 92//102 147//102
f 44//103 92//103 147//103
f 78//104 91//104 92//104
f 51//105 188//105 206//105
f 51//106 124//106 188//106
f 188//107 206//107 208//107
f 19//108 201//108 202//108
f 201//109 202//109 209//109
f 19//110 201//110 422//110
f 92//111 107//111 183//111
f 44//112 92//112 107//112
f 92//113 182//113 183//113
f 91//114 92//114 182//114
f 91//115 181//115 182//115
f 18//116 85//116 86//116
f 85//117 86//117 181//117
f 17//118 18//118 86//118
f 37//119 204//119 207//119
f 37//120 143//120 204//120
f 37//121 206//121 207//121
f 33//122 141//122 172//122
f 141//123 149//123 177//123
f 40//124 93//124 166//124
f 190//125 194//125 245//125
f 56//126 190//126 194//126
f 190//127 244//127 245//127
f 194//128 245//128 246//128
f 29//129 159//129 160//129
f 29//130 158//130 159//130
f 28//131 29//131 160//131
f 162//132 247//132 248//132
f 34//133 247//133 248//133
f 31//134 162//134 248//134
f 4//135 197//135 237//135
f 4//136 52//136 237//136
f 4//137 197//137 198//137
f 175//138 197//138 237//138
f 55//139 69//139 105//139
f 64//140 69//140 105//140
f 55//141 104//141 105//141
f 9//142 169//142 194//142
f 123//143 169//143 194//143
f 9//144 169//144 418//144
f 9//145 56//145 194//145
f 32//146 118//146 229//146
f 118//147 229//147 230//147
f 26//148 32//148 229//148
f 32//149 112//149 118//149
f 56//150 190//150 222//150
f 98//151 99//151 100//151
f 98//152 100//152 243//152
f 99//153 100//153 241//153
f 48//154 101//154 127//154
f 48//155 127//155 218//155
f 101//156 127//156 143//156
f 80//157 167//157 219//157
f 21//158 80//158 167//158
f 80//159 219//159 238//159
f 167//160 219//160 220//160
f 27//161 155//161 156//161
f 23//162 27//162 155//162
f 27//163 113//163 156//163
f 50//164 132//164 210//164
f 50//165 130//165 210//165
f 132//166 199//166 210//166
f 136//167 137//167 151//167
f 136//168 137//168 139//168
f 136//169 151//169 170//169
f 127//170 210//170 218//170
f 48//171 115//171 218//171
f 53//172 54//172 224//172
f 53//173 223//173 224//173
f 53//174 54//174 64//174
f 54//175 224//175 225//175
f 52//176 135//176 237//176
f 46//177 135//177 221//177
f 141//178 171//178 212//178
f 170//179 171//179 212//179
f 141//180 171//180 177//180
f 33//181 141//181 212//181
f 70//182 108//182 109//182
f 68//183 109//183 110//183
f 120//184 121//184 231//184
f 102//185 120//185 121//185
f 131//186 227//186 248//186
f 26//187 131//187 227//187
f 34//188 131//188 248//188
f 114//189 227//189 248//189
f 47//190 54//190 64//190
f 53//191 64//191 106//191
f 21//192 239//192 243//192
f 21//193 80//193 239//193
f 21//194 100//194 243//194
f 239//195 242//195 243//195
f 47//196 71//196 157//196
f 47//197 64//197 71//197
f 71//198 140//198 157//198
f 47//199 125//199 157//199
f 63//200 79//200 97//200
f 63//201 79//201 192//201
f 63//202 78//202 97//202
f 79//203 96//203 97//203
f 47//204 54//204 226//204
f 35//205 144//205 228//205
f 35//206 144//206 157//206
f 35//207 228//207 235//207
f 117//208 144//208 228//208
f 112//209 118//209 124//209
f 51//210 118//210 124//210
f 112//211 117//211 124//211
f 20//212 45//212 126//212
f 45//213 126//213 238//213
f 20//214 126//214 142//214
f 2//215 20//215 45//215
f 135//216 199//216 237//216
f 206//217 207//217 217//217
f 93//218 207//218 217//218
f 206//219 208//219 217//219
f 23//220 154//220 155//220
f 23//221 146//221 154//221
f 38//222 165//222 168//222
f 40//223 166//223 168//223
f 33//224 202//224 209//224
f 200//225 201//225 209//225
f 37//226 101//226 143//226
f 37//227 101//227 102//227
f 58//228 187//228 213//228
f 44//229 58//229 203//229
f 21//230 61//230 100//230
f 21//231 61//231 167//231
f 61//232 100//232 241//232
f 36//233 114//233 227//233
f 36//234 112//234 227//234
f 36//235 114//235 125//235
f 28//236 160//236 161//236
f 203//237 205//237 211//237
f 44//238 203//238 205//238
f 47//239 114//239 226//239
f 114//240 226//240 248//240
f 47//241 114//241 125//241
f 63//242 77//242 78//242
f 63//243 77//243 184//243
f 117//244 124//244 138//244
f 124//245 138//245 178//245
f 117//246 138//246 228//246
f 39//247 42//247 73//247
f 39//248 42//248 82//248
f 13//249 39//249 73//249
f 42//250 73//250 74//250
f 130//251 143//251 204//251
f 127//252 130//252 143//252
f 65//253 99//253 241//253
f 65//254 99//254 130//254
f 65//255 236//255 241//255
f 50//256 65//256 103//256
f 50//257 103//257 130//257
f 65//258 103//258 130//258
f 49//259 50//259 65//259
f 50//260 65//260 130//260
f 42//261 74//261 75//261
f 42//262 43//262 75//262
f 208//263 213//263 217//263
f 187//264 213//264 217//264
f 43//265 75//265 185//265
f 151//266 170//266 171//266
f 170//267 211//267 212//267
f 150//268 171//268 177//268
f 150//269 151//269 171//269
f 67//270 70//270 106//270
f 53//271 67//271 106//271
f 67//272 70//272 108//272
f 7//273 123//273 169//273
f 7//274 123//274 197//274
f 7//275 169//275 352//275
f 124//276 148//276 188//276
f 124//277 148//277 178//277
f 148//278 188//278 214//278
f 78//279 91//279 97//279
f 90//280 91//280 97//280
f 56//281 66//281 108//281
f 56//282 66//282 222//282
f 10//283 56//283 108//283
f 66//284 67//284 108//284
f 90//285 91//285 181//285
f 90//286 180//286 181//286
f 101//287 102//287 121//287
f 101//288 121//288 122//288
f 64//289 105//289 106//289
f 94//290 138//290 228//290
f 94//291 133//291 138//291
f 94//292 228//292 235//292
f 16//293 86//293 87//293
f 15//294 16//294 87//294
f 86//295 87//295 180//295
f 16//296 17//296 86//296
f 15//297 87//297 88//297
f 87//298 88//298 179//298
f 9//299 10//299 56//299
f 9//300 10//300 286//300
f 23//301 24//301 146//301
f 23//302 24//302 231//302
f 89//303 90//303 180//303
f 89//304 90//304 97//304
f 89//305 179//305 180//305
f 123//306 189//306 197//306
f 7//307 197//307 198//307
f 89//308 96//308 97//308
f 137//309 139//309 173//309
f 139//310 173//310 216//310
f 59//311 173//311 216//311
f 59//312 178//312 216//312
f 49//313 220//313 236//313
f 116//314 219//314 220//314
f 42//315 43//315 82//315
f 4//316 52//316 196//316
f 4//317 196//317 198//317
f 6//318 52//318 196//318
f 44//319 58//319 62//319
f 176//320 200//320 397//320
f 172//321 200//321 209//321
f 39//322 82//322 83//322
f 14//323 39//323 83//323
f 54//324 225//324 226//324
f 111//325 145//325 164//325
f 8//326 111//326 164//326
f 53//327 66//327 67//327
f 53//328 66//328 223//328
f 25//329 229//329 230//329
f 11//330 110//330 152//330
f 49//331 65//331 236//331
f 63//332 184//332 192//332
f 127//333 130//333 210//333
f 36//334 112//334 144//334
f 36//335 125//335 144//335
f 112//336 117//336 144//336
f 66//337 222//337 223//337
f 126//338 142//338 242//338
f 20//339 95//339 142//339
f 196//340 198//340 249//340
f 8//341 26//341 34//341
f 8//342 26//342 111//342
f 26//343 34//343 131//343
f 45//344 221//344 238//344
f 219//345 221//345 238//345
f 45//346 46//346 221//346
f 71//347 72//347 140//347
f 64//348 71//348 72//348
f 72//349 140//349 163//349
f 123//350 194//350 246//350
f 123//351 189//351 246//351
f 175//352 189//352 197//352
f 115//353 175//353 189//353
f 3//354 98//354 168//354
f 3//355 98//355 142//355
f 98//356 166//356 168//356
f 3//357 165//357 168//357
f 126//358 238//358 242//358
f 142//359 242//359 243//359
f 13//360 14//360 39//360
f 12//361 13//361 73//361
f 32//362 112//362 227//362
f 37//363 102//363 206//363
f 93//364 166//364 207//364
f 199//365 210//365 218//365
f 199//366 218//366 237//366
f 116//367 219//367 221//367
f 113//368 134//368 244//368
f 113//369 134//369 156//369
f 113//370 244//370 245//370
f 134//371 191//371 244//371
f 239//372 240//372 242//372
f 80//373 239//373 240//373
f 238//374 240//374 242//374
f 170//375 211//375 215//375
f 134//376 174//376 191//376
f 33//377 172//377 209//377
f 87//378 179//378 180//378
f 86//379 180//379 181//379
f 85//380 181//380 182//380
f 84//381 85//381 182//381
f 84//382 182//382 183//382
f 84//383 183//383 202//383
f 183//384 195//384 202//384
f 133//385 138//385 178//385
f 77//386 184//386 185//386
f 62//387 185//387 186//387
f 58//388 62//388 186//388
f 58//389 186//389 187//389
f 188//390 208//390 215//390
f 125//391 144//391 157//391
f 80//392 238//392 240//392
f 2//393 5//393 45//393
f 2//394 5//394 275//394
f 33//395 195//395 202//395
f 139//396 214//396 216//396
f 148//397 214//397 216//397
f 139//398 193//398 214//398
f 60//399 167//399 220//399
f 60//400 76//400 167//400
f 60//401 220//401 236//401
f 98//402 142//402 243//402
f 3//403 95//403 142//403
f 3//404 95//404 371//404
f 60//405 76//405 236//405
f 76//406 236//406 241//406
f 25//407 111//407 229//407
f 26//408 111//408 229//408
f 26//409 32//409 227//409
f 23//410 231//410 232//410
f 23//411 27//411 232//411
f 27//412 113//412 233//412
f 113//413 233//413 234//413
f 190//414 191//414 244//414
f 190//415 191//415 222//415
f 57//416 191//416 222//416
f 29//417 57//417 222//417
f 29//418 222//418 223//418
f 28//419 29//419 223//419
f 28//420 223//420 224//420
f 28//421 30//421 224//421
f 30//422 224//422 225//422
f 31//423 225//423 226//423
f 31//424 226//424 248//424
f 61//425 76//425 167//425
f 61//426 76//426 241//426
f 148//427 178//427 216//427
f 188//428 193//428 214//428
f 113//429 234//429 245//429
f 234//430 245//430 246//430
f 129//431 234//431 246//431
f 129//432 189//432 246//432
f 115//433 129//433 189//433
f 115//434 175//434 218//434
f 175//435 218//435 237//435
f 132//436 135//436 221//436
f 132//437 135//437 199//437
f 59//438 133//438 178//438
f 357//439 369//439 390//439
f 302//440 369//440 390//440
f 265//441 357//441 369//441
f 12//442 268//442 303//442
f 12//443 13//443 303//443
f 268//444 270//444 303//444
f 350//445 351//445 453//445
f 351//446 358//446 453//446
f 330//447 350//447 351//447
f 350//448 452//448 453//448
f 270//449 303//449 304//449
f 272//450 303//450 304//450
f 270//451 271//451 304//451
f 278//452 344//452 358//452
f 344//453 358//453 413//453
f 278//454 344//454 438//454
f 278//455 351//455 358//455
f 358//456 453//456 454//456
f 342//457 453//457 454//457
f 358//458 454//458 466//458
f 298//459 333//459 334//459
f 285//460 333//460 334//460
f 298//461 300//461 334//461
f 153//462 176//462 378//462
f 176//463 378//463 397//463
f 331//464 348//464 349//464
f 348//465 349//465 451//465
f 331//466 349//466 350//466
f 281//467 331//467 348//467
f 271//468 304//468 305//468
f 272//469 304//469 305//469
f 271//470 305//470 410//470
f 10//471 337//471 338//471
f 10//472 286//472 337//472
f 300//473 337//473 338//473
f 279//474 280//474 361//474
f 279//475 280//475 295//475
f 280//476 361//476 430//476
f 279//477 345//477 361//477
f 263//478 419//478 432//478
f 263//479 419//479 422//479
f 263//480 370//480 432//480
f 419//481 425//481 432//481
f 305//482 409//482 410//482
f 273//483 305//483 409//483
f 292//484 409//484 410//484
f 311//485 408//485 416//485
f 293//486 408//486 416//486
f 273//487 311//487 408//487
f 271//488 410//488 411//488
f 288//489 410//489 411//489
f 271//490 323//490 411//490
f 349//491 350//491 451//491
f 348//492 450//492 451//492
f 423//493 431//493 435//493
f 423//494 425//494 431//494
f 395//495 431//495 435//495
f 423//496 433//496 435//496
f 18//497 314//497 315//497
f 314//498 315//498 406//498
f 18//499 315//499 316//499
f 307//500 308//500 376//500
f 293//501 307//501 308//501
f 308//502 322//502 376//502
f 292//503 307//503 376//503
f 261//504 388//504 389//504
f 261//505 389//505 467//505
f 260//506 261//506 388//506
f 287//507 399//507 415//507
f 287//508 415//508 442//508
f 363//509 399//509 415//509
f 287//510 385//510 399//510
f 336//511 407//511 419//511
f 322//512 336//512 407//512
f 407//513 419//513 422//513
f 336//514 419//514 425//514
f 365//515 368//515 417//515
f 365//516 366//516 368//516
f 368//517 417//517 434//517
f 365//518 417//518 435//518
f 328//519 359//519 424//519
f 359//520 372//520 424//520
f 295//521 328//521 359//521
f 328//522 392//522 424//522
f 252//523 285//523 299//523
f 285//524 299//524 334//524
f 252//525 299//525 302//525
f 5//526 6//526 282//526
f 6//527 196//527 282//527
f 5//528 276//528 282//528
f 254//529 374//529 375//529
f 253//530 254//530 375//530
f 254//531 255//531 374//531
f 308//532 321//532 322//532
f 308//533 321//533 326//533
f 321//534 322//534 406//534
f 412//535 426//535 428//535
f 426//536 428//536 437//536
f 412//537 428//537 435//537
f 281//538 412//538 426//538
f 19//539 314//539 422//539
f 314//540 407//540 422//540
f 322//541 406//541 407//541
f 314//542 406//542 407//542
f 321//543 405//543 406//543
f 320//544 321//544 405//544
f 315//545 405//545 406//545
f 17//546 18//546 316//546
f 16//547 17//547 316//547
f 267//548 426//548 427//548
f 426//549 427//549 437//549
f 267//550 331//550 426//550
f 267//551 424//551 427//551
f 370//552 378//552 401//552
f 370//553 396//553 401//553
f 370//554 378//554 397//554
f 270//555 323//555 392//555
f 323//556 392//556 427//556
f 270//557 392//557 394//557
f 270//558 271//558 323//558
f 418//559 465//559 466//559
f 352//560 418//560 466//560
f 454//561 465//561 466//561
f 414//562 418//562 465//562
f 258//563 259//563 387//563
f 258//564 387//564 388//564
f 258//565 259//565 443//565
f 259//566 386//566 387//566
f 261//567 467//567 468//567
f 400//568 420//568 457//568
f 400//569 438//569 457//569
f 400//570 413//570 420//570
f 249//571 420//571 457//571
f 9//572 286//572 418//572
f 286//573 414//573 418//573
f 262//574 341//574 347//574
f 341//575 347//575 353//575
f 262//576 341//576 447//576
f 262//577 347//577 449//577
f 286//578 414//578 442//578
f 414//579 415//579 442//579
f 286//580 296//580 442//580
f 328//581 329//581 461//581
f 295//582 328//582 461//582
f 291//583 329//583 461//583
f 327//584 328//584 329//584
f 330//585 356//585 372//585
f 356//586 359//586 372//586
f 267//587 330//587 372//587
f 278//588 330//588 356//588
f 393//589 439//589 440//589
f 290//590 393//590 440//590
f 345//591 439//591 440//591
f 310//592 393//592 439//592
f 257//593 342//593 383//593
f 342//594 363//594 383//594
f 257//595 342//595 453//595
f 257//596 382//596 383//596
f 361//597 421//597 430//597
f 421//598 430//598 438//598
f 361//599 364//599 421//599
f 365//600 380//600 395//600
f 365//601 395//601 435//601
f 380//602 395//602 396//602
f 365//603 366//603 380//603
f 344//604 400//604 438//604
f 278//605 356//605 438//605
f 284//606 444//606 445//606
f 260//607 444//607 445//607
f 284//608 445//608 446//608
f 283//609 284//609 444//609
f 276//610 364//610 441//610
f 275//611 276//611 441//611
f 361//612 364//612 441//612
f 276//613 282//613 364//613
f 263//614 370//614 397//614
f 370//615 396//615 432//615
f 298//616 338//616 339//616
f 152//617 338//617 339//617
f 298//618 300//618 338//618
f 274//619 322//619 376//619
f 274//620 292//620 376//620
f 274//621 322//621 336//621
f 350//622 451//622 452//622
f 253//623 451//623 452//623
f 343//624 447//624 468//624
f 266//625 343//625 447//625
f 343//626 446//626 468//626
f 360//627 447//627 468//627
f 283//628 294//628 335//628
f 294//629 334//629 335//629
f 283//630 297//630 335//630
f 283//631 284//631 294//631
f 459//632 462//632 463//632
f 459//633 460//633 462//633
f 371//634 462//634 463//634
f 251//635 459//635 463//635
f 277//636 354//636 384//636
f 277//637 343//637 354//637
f 354//638 373//638 384//638
f 277//639 301//639 384//639
f 309//640 325//640 326//640
f 319//641 325//641 326//641
f 293//642 309//642 326//642
f 277//643 294//643 301//643
f 294//644 301//644 302//644
f 277//645 284//645 294//645
f 346//646 373//646 448//646
f 341//647 346//647 373//647
f 346//648 367//648 448//648
f 265//649 373//649 448//649
f 341//650 346//650 353//650
f 346//651 353//651 367//651
f 2//652 20//652 275//652
f 20//653 275//653 355//653
f 249//654 282//654 457//654
f 196//655 249//655 282//655
f 282//656 364//656 457//656
f 428//657 433//657 437//657
f 253//658 257//658 382//658
f 253//659 257//659 452//659
f 253//660 381//660 382//660
f 327//661 392//661 394//661
f 268//662 270//662 394//662
f 200//663 201//663 429//663
f 200//664 397//664 429//664
f 201//665 422//665 429//665
f 267//666 330//666 331//666
f 330//667 331//667 350//667
f 274//668 288//668 423//668
f 274//669 288//669 292//669
f 274//670 423//670 425//670
f 288//671 423//671 433//671
f 251//672 329//672 463//672
f 327//673 329//673 463//673
f 251//674 291//674 329//674
f 259//675 287//675 385//675
f 259//676 287//676 442//676
f 259//677 385//677 386//677
f 266//678 343//678 354//678
f 266//679 354//679 373//679
f 258//680 260//680 388//680
f 258//681 260//681 444//681
f 425//682 431//682 432//682
f 395//683 431//683 432//683
f 277//684 343//684 446//684
f 274//685 336//685 425//685
f 293//686 308//686 326//686
f 324//687 367//687 448//687
f 269//688 272//688 303//688
f 267//689 372//689 424//689
f 295//690 456//690 461//690
f 279//691 295//691 456//691
f 306//692 456//692 461//692
f 280//693 295//693 359//693
f 280//694 295//694 332//694
f 272//695 273//695 305//695
f 272//696 273//696 312//696
f 428//697 433//697 435//697
f 273//698 408//698 409//698
f 307//699 408//699 409//699
f 395//700 396//700 432//700
f 379//701 396//701 401//701
f 300//702 334//702 335//702
f 297//703 300//703 335//703
f 169//704 352//704 418//704
f 281//705 353//705 412//705
f 281//706 347//706 353//706
f 353//707 377//707 412//707
f 320//708 321//708 326//708
f 319//709 320//709 326//709
f 296//710 297//710 337//710
f 283//711 296//711 297//711
f 297//712 300//712 337//712
f 286//713 296//713 337//713
f 320//714 404//714 405//714
f 319//715 320//715 404//715
f 316//716 404//716 405//716
f 294//717 299//717 334//717
f 294//718 299//718 302//718
f 324//719 448//719 455//719
f 265//720 448//720 455//720
f 16//721 316//721 317//721
f 280//722 359//722 430//722
f 356//723 359//723 430//723
f 280//724 332//724 359//724
f 15//725 16//725 317//725
f 15//726 317//726 318//726
f 278//727 330//727 351//727
f 253//728 375//728 381//728
f 319//729 403//729 404//729
f 317//730 403//730 404//730
f 7//731 198//731 420//731
f 198//732 249//732 420//732
f 7//733 352//733 420//733
f 366//734 368//734 398//734
f 368//735 398//735 436//735
f 368//736 434//736 436//736
f 289//737 398//737 436//737
f 345//738 439//738 441//738
f 279//739 345//739 440//739
f 269//740 272//740 312//740
f 273//741 311//741 312//741
f 288//742 292//742 410//742
f 263//743 397//743 429//743
f 269//744 312//744 313//744
f 261//745 445//745 446//745
f 277//746 284//746 446//746
f 255//747 340//747 374//747
f 255//748 340//748 449//748
f 340//749 374//749 391//749
f 347//750 348//750 450//750
f 281//751 347//751 348//751
f 347//752 449//752 450//752
f 265//753 357//753 455//753
f 11//754 152//754 339//754
f 279//755 440//755 456//755
f 290//756 440//756 456//756
f 293//757 307//757 408//757
f 293//758 309//758 416//758
f 266//759 341//759 373//759
f 283//760 443//760 444//760
f 258//761 443//761 444//761
f 283//762 296//762 443//762
f 20//763 95//763 371//763
f 20//764 355//764 371//764
f 296//765 442//765 443//765
f 259//766 442//766 443//766
f 256//767 264//767 360//767
f 250//768 256//768 264//768
f 256//769 360//769 447//769
f 264//770 360//770 468//770
f 5//771 275//771 276//771
f 275//772 441//772 458//772
f 301//773 369//773 384//773
f 265//774 369//774 384//774
f 301//775 302//775 369//775
f 352//776 413//776 466//776
f 352//777 413//777 420//777
f 358//778 413//778 466//778
f 264//779 467//779 468//779
f 252//780 302//780 390//780
f 379//781 380//781 396//781
f 323//782 427//782 437//782
f 323//783 411//783 437//783
f 3//784 165//784 394//784
f 165//785 268//785 394//785
f 3//786 327//786 394//786
f 327//787 371//787 463//787
f 355//788 371//788 462//788
f 1//789 165//789 268//789
f 13//790 269//790 303//790
f 13//791 14//791 269//791
f 14//792 269//792 313//792
f 256//793 262//793 447//793
f 266//794 341//794 447//794
f 281//795 331//795 426//795
f 392//796 424//796 427//796
f 356//797 430//797 438//797
f 327//798 328//798 392//798
f 439//799 441//799 458//799
f 310//800 439//800 458//800
f 342//801 363//801 464//801
f 458//802 460//802 462//802
f 310//803 458//803 460//803
f 355//804 458//804 462//804
f 363//805 415//805 464//805
f 414//806 415//806 464//806
f 275//807 355//807 458//807
f 316//808 317//808 404//808
f 317//809 318//809 403//809
f 315//810 316//810 405//810
f 362//811 367//811 402//811
f 353//812 367//812 402//812
f 289//813 362//813 402//813
f 324//814 362//814 367//814
f 292//815 307//815 409//815
f 288//816 411//816 433//816
f 411//817 433//817 437//817
f 412//818 417//818 435//818
f 412//819 417//819 434//819
f 265//820 373//820 384//820
f 353//821 377//821 402//821
f 377//822 402//822 436//822
f 263//823 422//823 429//823
f 295//824 332//824 359//824
f 290//825 306//825 456//825
f 3//826 327//826 371//826
f 291//827 306//827 461//827
f 255//828 449//828 450//828
f 254//829 255//829 450//829
f 256//830 262//830 449//830
f 254//831 450//831 451//831
f 253//832 254//832 451//832
f 257//833 452//833 453//833
f 342//834 454//834 465//834
f 414//835 464//835 465//835
f 342//836 464//836 465//836
f 260//837 261//837 445//837
f 261//838 446//838 468//838
f 251//839 459//839 460//839
f 251//840 310//840 460//840
f 290//841 291//841 393//841
f 251//842 291//842 393//842
f 290//843 291//843 306//843
f 377//844 434//844 436//844
f 377//845 412//845 434//845
f 251//846 310//846 393//846
f 344//847 400//847 413//847
f 345//848 361//848 441//848
f 421//849 438//849 457//849
f 364//850 421//850 457//850
f 289//851 402//851 436//851
f 250//852 256//852 340//852
f 256//853 340//853 449//853
f 250//854 340//854 391//854
